<svg xmlns="http://www.w3.org/2000/svg" viewBox="0 0 178.96 178.96"><defs><style>.cls-1{fill:none;stroke:#fff;stroke-miterlimit:10;stroke-width:3px;}</style></defs><title>Asset 3</title><g id="Layer_2" data-name="Layer 2"><g id="Layer_1-2" data-name="Layer 1"><polyline class="cls-1" points="36.69 71.88 36.69 1.5 107.07 1.5"/><line class="cls-1" x1="107.07" y1="71.88" x2="36.69" y2="71.88"/><path class="cls-1" d="M107.07,71.88"/><path class="cls-1" d="M107.07,1.5"/><rect class="cls-1" x="1.5" y="36.69" width="70.38" height="70.38"/><line class="cls-1" x1="123.33" y1="1.5" x2="123.33" y2="142.26"/><polyline class="cls-1" points="36.69 71.88 36.69 1.5 123.33 1.5"/><line class="cls-1" x1="1.5" y1="36.69" x2="36.69" y2="1.5"/><path class="cls-1" d="M123.33,1.5"/><path class="cls-1" d="M71.88,36.69"/><line class="cls-1" x1="71.88" y1="107.07" x2="107.07" y2="71.88"/><line class="cls-1" x1="1.5" y1="107.07" x2="36.69" y2="71.88"/><path class="cls-1" d="M116.16,143.74"/><line class="cls-1" x1="177.46" y1="71.88" x2="177.46" y2="142.26"/><rect class="cls-1" x="71.88" y="107.07" width="70.38" height="70.38"/><line class="cls-1" x1="142.26" y1="107.07" x2="177.46" y2="71.88"/><line class="cls-1" x1="142.26" y1="36.69" x2="177.46" y2="71.88"/><line class="cls-1" x1="142.26" y1="177.46" x2="177.46" y2="142.26"/><line class="cls-1" x1="71.88" y1="177.46" x2="107.07" y2="142.26"/><line class="cls-1" x1="107.07" y1="71.88" x2="107.07" y2="142.26"/><line class="cls-1" x1="123.33" y1="142.26" x2="177.46" y2="142.26"/><line class="cls-1" x1="123.33" y1="142.26" x2="107.07" y2="126.01"/><line class="cls-1" x1="142.26" y1="36.69" x2="123.33" y2="36.69"/></g></g></svg>